<?xml version="1.0" encoding="UTF-8" standalone="no"?>
<!-- Created with Inkscape (http://www.inkscape.org/) -->

<svg
   width="76.199997mm"
   height="52.36578mm"
   viewBox="0 0 76.199997 52.36578"
   version="1.1"
   id="svg1"
   xmlns="http://www.w3.org/2000/svg"
   xmlns:svg="http://www.w3.org/2000/svg">
  <defs
     id="defs1" />
  <g
     id="layer1"
     transform="translate(-78.126841,-128.54762)">
    <path
       style="fill:#8494b6;fill-opacity:1"
       d="m 80.053004,180.8912 -1.92617,-0.0228 v -26.16037 -26.16042 h 38.100006 38.1 v 26.16045 26.16044 l -4.21217,0.0227 c -5.49332,0.0296 -67.552736,0.0296 -70.061666,-3e-5 z m 14.34373,-7.34325 c 0.0896,-0.23283 0.21412,-0.53763 0.27669,-0.67733 0.0626,-0.1397 0.25669,-0.61595 0.43139,-1.05833 0.17469,-0.44239 0.40295,-0.99484 0.50723,-1.22767 0.10427,-0.23283 0.24129,-0.56987 0.30448,-0.74898 l 0.11489,-0.32564 0.25521,-0.12963 c 0.32308,-0.16409 0.32443,-0.16543 0.26414,-0.26297 l -0.0504,-0.0815 -0.3122,0.0704 -0.31221,0.0704 -0.36716,-0.0686 -0.36715,-0.0686 -0.0352,0.0569 c -0.0636,0.10298 0.0767,0.23345 0.31349,0.29139 0.12806,0.0313 0.23283,0.0928 0.23283,0.13649 0,0.0437 -0.24495,0.68118 -0.54434,1.41656 -0.72907,1.79079 -0.8069,1.97204 -0.84679,1.97204 -0.0188,0 -0.10056,-0.18097 -0.18168,-0.40216 -0.0811,-0.2212 -0.39106,-0.98755 -0.68877,-1.70301 -0.29771,-0.71546 -0.52977,-1.30754 -0.51569,-1.31573 0.0141,-0.008 0.13954,-0.0523 0.27878,-0.0979 l 0.25318,-0.083 0.0298,-0.15459 0.0298,-0.15459 -0.19828,0.0669 c -0.25386,0.0856 -0.96034,0.0958 -1.33661,0.0192 -0.16041,-0.0326 -0.32418,-0.0392 -0.36394,-0.0147 l -0.0723,0.0447 0.0992,0.11946 c 0.0545,0.0657 0.1697,0.11946 0.25594,0.11946 h 0.15679 l 0.13497,0.26101 c 0.27716,0.53598 1.81671,4.16767 1.81671,4.28551 v 0.12257 l 0.13715,-0.0274 0.13715,-0.0274 z m 40.701586,0.37582 0.37181,-0.0857 0.31943,-0.22961 c 0.17569,-0.12629 0.4343,-0.40111 0.57469,-0.61072 l 0.25526,-0.3811 0.133,-0.45987 c 0.17608,-0.60883 0.16776,-0.92254 -0.0392,-1.47557 l -0.17216,-0.46013 -0.34656,-0.39372 -0.34657,-0.39373 -0.40979,-0.20765 -0.4098,-0.20766 h -0.51174 -0.51173 l -0.38013,0.17868 -0.38012,0.17867 -0.41406,0.45305 -0.41405,0.45304 -0.10447,0.43546 -0.10446,0.43545 0.0396,0.61721 0.0396,0.6172 0.218,0.36879 c 0.11991,0.20283 0.36809,0.51407 0.55151,0.69164 l 0.33351,0.32285 0.37195,0.11598 c 0.45052,0.14048 0.84192,0.15145 1.33642,0.0375 z m -1.14039,-0.27956 -0.26058,-0.11815 -0.26655,-0.32338 -0.26656,-0.32338 -0.14034,-0.63079 -0.14034,-0.63079 0.10436,-0.60121 0.10435,-0.60122 0.20361,-0.3543 c 0.2326,-0.40474 0.55101,-0.65753 0.93211,-0.74 l 0.26348,-0.057 0.39276,0.0989 0.39275,0.0989 0.25157,0.28652 0.25158,0.28653 0.18247,0.60074 0.18247,0.60075 -0.0414,0.57867 -0.0414,0.57867 -0.20221,0.4035 -0.20221,0.4035 -0.31417,0.24926 -0.31416,0.24927 -0.4055,0.0316 -0.4055,0.0316 z m 11.90647,-1.94164 -0.0116,-2.26343 0.10953,-0.034 c 0.0602,-0.0187 0.21431,-0.057 0.34236,-0.085 l 0.23284,-0.051 v -0.12539 c 0,-0.14752 -0.0324,-0.15074 -0.42359,-0.042 l -0.29658,0.0824 -0.44425,-0.0702 -0.44425,-0.0702 v 0.11435 0.11436 l 0.1905,0.001 c 0.10478,7.2e-4 0.23495,0.0296 0.28927,0.0641 l 0.0988,0.0628 0.0282,1.62928 c 0.0155,0.8961 0.009,1.62925 -0.0152,1.6292 -0.0239,-4e-5 -0.11913,-0.10138 -0.21167,-0.22519 -0.0925,-0.12381 -0.72246,-0.91329 -1.39981,-1.75438 l -1.23154,-1.52927 -0.51991,-0.0218 c -0.28595,-0.012 -0.56519,-0.0322 -0.62054,-0.0448 -0.0553,-0.0126 -0.11762,0.0233 -0.13839,0.0797 l -0.0378,0.10271 0.23885,0.0573 c 0.13137,0.0315 0.34362,0.11012 0.47168,0.17463 l 0.23283,0.11729 v 1.8959 c 0,1.04275 -0.0231,1.95617 -0.0514,2.02983 l -0.0514,0.13392 -0.18144,0.001 c -0.0998,7.1e-4 -0.23859,0.0382 -0.30844,0.0834 l -0.127,0.0821 0.0847,0.0119 c 0.0466,0.007 0.42024,0.0232 0.83038,0.0371 l 0.7457,0.0252 -0.0305,-0.0915 c -0.0168,-0.0503 -0.12293,-0.10563 -0.23589,-0.12287 -0.11296,-0.0172 -0.23046,-0.0588 -0.26111,-0.0924 -0.0306,-0.0336 -0.0734,-0.81355 -0.095,-1.73324 l -0.0393,-1.67217 h 0.062 c 0.0341,0 0.16972,0.14287 0.30136,0.3175 0.13164,0.17462 0.69814,0.86256 1.25888,1.52874 0.56074,0.66618 1.13048,1.38167 1.26609,1.58998 l 0.24655,0.37874 0.0789,-0.0263 0.0789,-0.0263 z m -61.472226,2.08668 v -0.1143 l -0.1905,-0.001 c -0.10478,-7.2e-4 -0.24188,-0.0339 -0.30467,-0.0737 l -0.11416,-0.0724 0.2358,-0.60368 0.23579,-0.60369 h 0.94744 0.94744 l 0.18633,0.43313 c 0.10248,0.23822 0.1929,0.53081 0.20093,0.6502 l 0.0146,0.21707 -0.20539,0.0506 c -0.11297,0.0278 -0.21823,0.0892 -0.23393,0.13623 l -0.0285,0.0856 0.92972,-0.003 0.92973,-0.003 -0.33586,-0.29633 -0.33585,-0.29634 -0.84678,-2.02196 c -0.46573,-1.11208 -0.84678,-2.07186 -0.84678,-2.13284 0,-0.061 -0.0377,-0.13417 -0.0838,-0.16264 l -0.0838,-0.0518 -0.21954,0.49127 c -0.12075,0.2702 -0.4858,1.11993 -0.81123,1.88828 -0.32542,0.76835 -0.68376,1.59033 -0.79631,1.82663 l -0.20462,0.42963 -0.21271,0.11384 c -0.117,0.0626 -0.21272,0.13979 -0.21272,0.1715 0,0.0317 0.32385,0.0577 0.71967,0.0577 h 0.71967 z m 0.0659,-1.76991 c -0.0258,-0.0258 0.0582,-0.26394 0.1866,-0.52916 0.12845,-0.26523 0.30258,-0.7013 0.38696,-0.96906 0.0844,-0.26776 0.18032,-0.48683 0.2132,-0.48683 0.0329,0 0.0838,0.12382 0.11305,0.27516 0.0293,0.15134 0.18184,0.58724 0.33899,0.96866 0.15714,0.38142 0.26442,0.71479 0.23838,0.74083 -0.0615,0.0615 -1.41569,0.0619 -1.47718,4e-4 z m 18.645346,1.81906 c 2e-5,-0.0265 -0.12379,-0.10272 -0.27513,-0.16933 l -0.27516,-0.12112 v -2.07115 -2.07116 l 0.3175,-0.0751 0.3175,-0.0751 v -0.12821 -0.1282 l -0.40217,0.0651 c -0.51917,0.0841 -0.7365,0.0868 -1.22767,0.0156 l -0.40216,-0.0583 v 0.11456 0.11455 l 0.32942,0.0527 0.32943,0.0527 0.0516,0.1344 c 0.0284,0.0739 0.0516,0.98581 0.0516,2.02643 v 1.89203 l -0.12613,0.12613 c -0.0694,0.0694 -0.24082,0.15132 -0.381,0.18211 -0.14018,0.0308 -0.25487,0.0872 -0.25487,0.12527 v 0.0693 l 0.97362,-0.0125 c 0.5355,-0.007 0.97365,-0.0342 0.97367,-0.0607 z m 6.09605,-0.0151 c 0,-0.0399 -0.1143,-0.11233 -0.254,-0.16103 l -0.254,-0.0885 -2.4e-4,-0.0975 c -1.4e-4,-0.0537 0.10083,-0.33568 0.22436,-0.62672 l 0.22462,-0.52916 h 0.94673 0.94673 l 0.22325,0.5627 0.22326,0.56269 -0.0479,0.0775 c -0.0264,0.0426 -0.13947,0.11233 -0.25136,0.15487 -0.11189,0.0425 -0.20344,0.11046 -0.20344,0.15093 v 0.0736 l 0.87971,-0.008 0.87972,-0.008 -0.29297,-0.3243 c -0.16114,-0.17837 -0.37044,-0.50222 -0.46513,-0.71967 -0.83367,-1.91464 -1.45106,-3.40175 -1.49985,-3.6127 -0.0323,-0.1397 -0.0945,-0.254 -0.13827,-0.254 h -0.0795 l -0.94627,2.1926 c -0.952,2.20586 -0.99976,2.29505 -1.38415,2.58479 l -0.2104,0.1586 0.73956,-0.008 0.73957,-0.008 z m 0.0847,-1.82333 c 0,-0.0132 0.0893,-0.20369 0.19842,-0.42333 0.10914,-0.21965 0.28742,-0.65594 0.3962,-0.96954 l 0.19776,-0.57019 0.10614,0.23152 c 0.0584,0.12734 0.22675,0.53632 0.37417,0.90886 0.14741,0.37253 0.28374,0.71543 0.30294,0.762 l 0.0349,0.0847 h -0.80527 c -0.44289,0 -0.80526,-0.0108 -0.80526,-0.024 z m 10.32932,1.82476 c 0,-0.034 -0.10477,-0.0869 -0.23282,-0.11751 -0.12806,-0.0306 -0.28046,-0.0931 -0.33867,-0.13898 l -0.10583,-0.0833 v -2.02164 -2.02163 h 0.58661 0.58662 l 0.13305,0.13305 0.13305,0.13305 v 0.23889 0.23889 l 0.12429,0.0477 c 0.17717,0.068 0.19612,-0.007 0.15067,-0.59494 l -0.0404,-0.52302 -1.92218,-0.002 -1.92218,-0.002 -0.0899,0.52495 -0.0899,0.52494 0.0611,0.0671 0.0611,0.0671 0.087,-0.10942 c 0.0478,-0.0602 0.133,-0.2523 0.18924,-0.42692 l 0.10227,-0.3175 h 0.62843 0.62844 v 2.02163 2.02164 l -0.10583,0.0833 c -0.0582,0.0459 -0.21061,0.10839 -0.33867,0.13898 -0.12806,0.0306 -0.23283,0.0846 -0.23283,0.11992 v 0.0643 l 0.97365,-0.002 0.97365,-0.002 z m 7.78934,0.0222 c 0.0233,-0.0112 -0.11007,-0.0675 -0.29633,-0.12499 l -0.33867,-0.10459 v -2.10903 -2.10902 l 0.3175,-0.0784 0.3175,-0.0784 v -0.11951 -0.11951 l -0.35983,0.0641 c -0.41114,0.0732 -1.26608,0.0683 -1.50867,-0.009 l -0.1635,-0.0519 v 0.12886 0.12887 l 0.29863,0.056 0.29863,0.056 0.0824,0.15391 0.0824,0.15392 v 1.86209 1.86208 l -0.21587,0.16981 -0.21588,0.16981 -0.16512,-0.0318 -0.16513,-0.0318 v 0.10383 0.10383 l 0.99483,-0.0125 c 0.54716,-0.007 1.01389,-0.0217 1.03717,-0.0329 z m -34.120666,-8.26009 c 0.53551,-0.0704 1.33561,-0.22315 1.778,-0.33933 l 0.80433,-0.21124 0.762,-0.36766 c 1.97007,-0.95053 3.462936,-2.68282 4.467576,-5.18407 0.1664,-0.41429 0.32419,-0.82944 0.35065,-0.92258 l 0.0481,-0.16933 -3.152836,0.0181 -3.15283,0.0181 -0.32437,0.47373 c -0.17839,0.26054 -0.53349,0.67954 -0.7891,0.9311 l -0.46475,0.45738 -0.4765,0.23313 -0.4765,0.23313 -0.72406,-7.3e-4 -0.72406,-7.2e-4 -0.39817,-0.19976 c -0.7267,-0.36459 -1.17408,-1.01014 -1.46996,-2.12108 l -0.14657,-0.55033 -6e-4,-1.10067 -6.1e-4,-1.10066 0.14402,-0.88124 c 0.28854,-1.76565 0.58807,-2.78484 1.13945,-3.87713 l 0.26391,-0.5228 0.44983,-0.46074 0.44983,-0.46075 0.42886,-0.21732 0.42887,-0.21732 0.57587,-0.10028 0.57587,-0.10029 0.57488,0.10274 0.57489,0.10274 0.37854,0.25073 0.37853,0.25073 0.25104,0.39846 c 0.13807,0.21915 0.30103,0.54133 0.36212,0.71596 l 0.11109,0.3175 h 3.16774 3.167746 l -0.0607,-0.48576 c -0.0334,-0.26717 -0.13299,-0.772 -0.22136,-1.12184 l -0.16067,-0.63607 -0.29448,-0.6006 c -0.16197,-0.33034 -0.50208,-0.88487 -0.75581,-1.23231 l -0.46133,-0.63171 -0.62009,-0.47016 c -0.829736,-0.62914 -1.562136,-1.01926 -2.493936,-1.32843 l -0.7732,-0.25655 -0.88867,-0.13195 c -0.48877,-0.0726 -1.16953,-0.13155 -1.5128,-0.13106 l -0.62414,9e-4 -1.05833,0.16561 c -2.06415,0.32301 -3.24608,0.75971 -4.78367,1.76748 l -0.59266,0.38844 -0.83529,0.80684 -0.83529,0.80683 -0.53557,0.76697 c -0.93162,1.33415 -1.72843,3.12018 -2.03752,4.56704 -0.87215,4.08251 -0.16791,7.60251 1.99435,9.96837 l 0.42919,0.4696 0.74073,0.49961 c 0.4074,0.27478 0.95028,0.59901 1.2064,0.7205 1.07927,0.51198 2.51594,0.80501 4.02166,0.8203 l 0.84667,0.009 z m 20.593266,-0.003 c 2.90186,-0.37752 5.12778,-1.36746 6.75681,-3.00496 l 0.72241,-0.72617 0.36093,-0.71381 0.36094,-0.7138 0.16404,-0.635 0.16404,-0.635 0.001,-0.94865 10e-4,-0.94865 -0.19715,-0.54314 c -0.68116,-1.87656 -2.07368,-2.91788 -4.58763,-3.43059 -0.46505,-0.0948 -1.18845,-0.19544 -1.60755,-0.22355 -0.93567,-0.0627 -2.84311,-0.3317 -3.97934,-0.5611 -2.8515,-0.57572 -4.70858,-1.8216 -5.6346,-3.78014 l -0.26991,-0.57086 -0.20158,-0.79402 -0.20158,-0.79402 v -0.73168 -0.73168 l 0.17511,-0.63191 c 0.0963,-0.34756 0.31014,-0.88887 0.47517,-1.20293 l 0.30006,-0.57101 0.5145,-0.56147 c 0.28297,-0.30882 0.76447,-0.7509 1.06999,-0.98241 l 0.55551,-0.42092 0.84667,-0.41853 c 0.46566,-0.23018 1.26576,-0.56192 1.778,-0.7372 0.51223,-0.17527 0.9391,-0.35532 0.94859,-0.40011 l 0.0173,-0.0814 -0.22893,0.0276 c -0.57313,0.0692 -2.24007,0.48217 -2.85359,0.70692 -1.05441,0.38627 -1.63075,0.69552 -2.45341,1.31643 l -0.76009,0.57367 -0.49755,0.59266 c -0.581,0.69207 -1.14061,1.61485 -1.49379,2.46321 l -0.25062,0.60203 -0.21444,1.07772 -0.21444,1.07772 1e-5,0.69166 2e-5,0.69166 0.1671,1.02415 0.1671,1.02414 0.26363,0.75387 c 0.81926,2.34273 2.52756,4.09377 4.94441,5.06811 l 0.6892,0.27784 0.84244,0.18016 c 0.46333,0.0991 1.29963,0.25417 1.85843,0.34465 1.89244,0.30641 2.94688,0.56994 3.40956,0.85215 l 0.27689,0.16889 0.099,0.21735 0.099,0.21735 -0.10578,0.39668 -0.10577,0.39667 -0.22782,0.24355 c -0.29982,0.32051 -0.92849,0.61005 -1.69658,0.78137 l -0.6221,0.13876 -0.94424,-0.0365 -0.94423,-0.0365 -0.57535,-0.28369 -0.57535,-0.28369 -0.22091,-0.26165 c -0.1215,-0.1439 -0.29038,-0.41405 -0.37529,-0.60031 l -0.15438,-0.33867 -0.002,-0.35983 -0.002,-0.35984 h -2.95641 c -1.62603,0 -3.01199,-0.0213 -3.07992,-0.0474 l -0.1235,-0.0474 -0.0572,0.61889 -0.0571,0.61889 0.1691,0.86781 0.16909,0.86781 0.31916,0.60736 0.31916,0.60736 0.63797,0.64655 0.63797,0.64655 0.49523,0.32255 c 1.43527,0.93479 3.69355,1.53455 5.88272,1.56232 l 0.78993,0.01 z m 12.08451,-0.20574 h 2.86126 l 0.0461,-0.4445 c 0.0253,-0.24447 0.16483,-1.2446 0.30999,-2.2225 0.14515,-0.9779 0.31866,-2.17805 0.38558,-2.667 0.0669,-0.48895 0.23879,-1.67005 0.38196,-2.62467 0.14317,-0.95461 0.29602,-2.02141 0.33966,-2.37066 0.0436,-0.34925 0.14074,-1.1303 0.21577,-1.73567 0.075,-0.60537 0.15711,-1.15782 0.18239,-1.22767 l 0.046,-0.127 0.0702,0.29634 c 0.0386,0.16298 0.12935,0.94403 0.20169,1.73566 0.0723,0.79164 0.16838,1.62984 0.21341,1.86267 0.045,0.23283 0.12149,0.76623 0.16992,1.18533 0.20026,1.73296 0.33757,2.84531 0.45987,3.72534 0.32045,2.30589 0.4039,2.93495 0.49983,3.76766 l 0.10241,0.889 0.61114,-0.002 c 0.33613,-0.001 1.33504,-0.0109 2.21981,-0.0212 l 1.60867,-0.0187 v -0.0935 c 0,-0.0763 0.63065,-1.6509 0.92898,-2.31947 0.23982,-0.53742 0.71756,-1.69478 1.32808,-3.21733 0.20539,-0.51224 0.40779,-1.00754 0.44977,-1.10067 0.042,-0.0931 0.24787,-0.58843 0.45753,-1.10067 1.04229,-2.54644 1.25695,-3.06765 1.35994,-3.302 0.0614,-0.1397 0.2382,-0.5969 0.3929,-1.016 0.1547,-0.4191 0.34972,-0.8763 0.43339,-1.016 l 0.15211,-0.254 3.1e-4,0.13084 c 1.8e-4,0.072 -0.0747,0.49105 -0.16634,0.93133 -0.0917,0.44027 -0.28187,1.6387 -0.42269,2.66317 -0.14083,1.02446 -0.31106,2.24366 -0.37829,2.70933 -0.0672,0.46567 -0.14475,1.05622 -0.17226,1.31233 -0.0275,0.25612 -0.1423,1.09432 -0.25508,1.86267 -0.11279,0.76835 -0.26507,1.83515 -0.33841,2.37067 -0.0733,0.53551 -0.15449,1.07844 -0.18036,1.2065 l -0.047,0.23283 h 3.05473 3.05473 l 1.1e-4,-0.23283 c 1e-4,-0.22845 0.058,-0.65308 0.75311,-5.5245 0.18938,-1.32715 0.3847,-2.69875 0.43405,-3.048 0.0494,-0.34925 0.14404,-1.016 0.21041,-1.48167 0.59568,-4.17903 0.74438,-5.23755 0.96938,-6.90034 0.14178,-1.04775 0.29322,-2.0955 0.33654,-2.32834 0.0433,-0.23283 0.1026,-0.61383 0.13173,-0.84666 0.0291,-0.23284 0.0724,-0.49001 0.0962,-0.5715 l 0.0432,-0.14817 h -4.34641 -4.34641 l -0.26295,0.65617 c -0.45904,1.14554 -2.95433,7.20469 -3.56522,8.65717 -0.32315,0.76835 -0.67275,1.65418 -0.77688,1.9685 -0.10414,0.31433 -0.22131,0.5715 -0.26037,0.5715 h -0.071 l -0.0544,-0.5715 c -0.0299,-0.31432 -0.11019,-1.00965 -0.17843,-1.54516 -0.0682,-0.53552 -0.17857,-1.41182 -0.24517,-1.94734 -0.0666,-0.53551 -0.23908,-1.88807 -0.38328,-3.00567 -0.32064,-2.48495 -0.58962,-4.63452 -0.59074,-4.72094 l -8.4e-4,-0.0643 -4.33916,0.0219 -4.33917,0.0219 -0.0207,0.21167 c -0.0247,0.25269 -0.13415,1.00366 -0.3147,2.159 -0.13978,0.89442 -0.67967,4.66546 -1.02427,7.15434 -0.11283,0.81492 -0.27904,1.97697 -0.36936,2.58234 -0.34058,2.28281 -0.64254,4.44281 -0.9824,7.02733 -0.11634,0.88477 -0.23027,1.65973 -0.25317,1.72214 -0.0229,0.0624 -0.0186,0.15073 0.01,0.19627 l 0.0512,0.0828 0.12536,-0.0481 c 0.069,-0.0265 1.41293,-0.0481 2.98662,-0.0481 z m -12.64807,-13.62156 c -0.0255,-0.0412 -0.21489,-0.10018 -0.42096,-0.13109 l -0.37467,-0.0562 -0.39928,-0.37183 -0.39927,-0.37183 0.0379,-0.45735 0.0379,-0.45735 0.19804,-0.27813 0.19805,-0.27812 0.53204,-0.24898 0.53205,-0.24898 0.57639,-0.0852 0.57639,-0.0852 0.62209,0.0528 0.6221,0.0528 0.45038,0.16851 c 0.57553,0.21533 0.85076,0.43448 1.05946,0.84356 l 0.16697,0.32729 v 0.42671 0.42671 h 3.00832 3.00833 l 0.0504,-0.13134 0.0504,-0.13134 -0.15192,-0.94816 -0.15193,-0.94816 -0.37024,-0.71967 c -0.20363,-0.39582 -0.55977,-0.95732 -0.79142,-1.24779 l -0.42118,-0.52812 -0.61254,-0.45543 c -1.51239,-1.12447 -2.82384,-1.59979 -5.09955,-1.84827 l -0.87045,-0.095 -1.17361,0.14624 c -1.90788,0.23775 -2.95404,0.52891 -4.26579,1.18723 -0.33007,0.16565 -0.63536,0.30119 -0.67841,0.30119 -0.0431,0 -0.15999,-0.16014 -0.25984,-0.35586 l -0.18154,-0.35586 0.0447,-0.80831 0.0447,-0.80831 0.26171,-0.75539 c 0.14395,-0.41546 0.23952,-0.77741 0.21238,-0.80433 -0.0271,-0.0269 -0.3033,0.21776 -0.61371,0.54372 l -0.56438,0.59267 -0.30996,0.59267 c -0.17048,0.32596 -0.37035,0.82676 -0.44417,1.11288 l -0.13421,0.52023 v 0.88257 0.88258 l 0.13429,0.45987 c 0.30313,1.03803 1.02934,2.02087 2.0478,2.77147 0.88944,0.65551 2.49782,1.39146 3.57524,1.63592 0.34925,0.0793 0.64678,0.1474 0.66117,0.15145 0.0144,0.004 0.005,-0.0263 -0.0201,-0.0675 z m 4.07785,-9.3464 0.18922,-0.17316 0.30581,-0.98128 c 0.1682,-0.5397 0.39424,-1.24798 0.50231,-1.57394 0.10806,-0.32597 0.24082,-0.76412 0.29502,-0.97367 0.0542,-0.20955 0.15186,-0.46428 0.21704,-0.56607 l 0.1185,-0.18507 0.40377,-0.0557 c 0.50058,-0.069 1.73969,-0.40215 2.14618,-0.57703 0.16669,-0.0717 0.35474,-0.19265 0.41789,-0.26874 l 0.11482,-0.13834 -0.12156,-0.0832 -0.12155,-0.0832 -0.68411,0.0467 c -0.37626,0.0257 -0.79536,0.0818 -0.93134,0.12475 -0.13597,0.0429 -0.54751,0.14533 -0.91453,0.22755 l -0.6673,0.1495 -0.10288,-0.14069 c -0.29516,-0.40367 -2.57684,-2.79877 -2.83459,-2.9755 -0.16495,-0.11311 -0.41178,-0.23302 -0.54849,-0.26646 l -0.24858,-0.0608 0.23174,0.39542 c 0.32608,0.55641 1.74708,3.36471 1.74708,3.45272 0,0.04 -0.0721,0.0728 -0.16028,0.0728 h -0.16027 l -0.0514,-0.13393 c -0.0283,-0.0737 -0.0514,-0.21177 -0.0514,-0.30691 v -0.17299 l -0.23502,0.047 c -0.12926,0.0258 -0.45311,0.1286 -0.71967,0.22833 l -0.48464,0.18133 v 0.22908 0.22907 l -0.14126,0.20934 c -0.0777,0.11514 -0.15402,0.22535 -0.16962,0.24491 -0.0156,0.0196 -0.32614,-0.25421 -0.69008,-0.60837 l -0.6617,-0.64394 -0.23095,-0.058 c -0.12702,-0.0319 -0.25232,-0.0366 -0.27846,-0.0104 -0.0261,0.0261 0.12389,0.32598 0.33339,0.66633 0.20949,0.34035 0.42594,0.75217 0.48099,0.91516 l 0.10011,0.29633 -0.12149,0.74083 -0.12148,0.74084 h 0.18957 c 0.25242,0 0.30121,-0.0741 0.68079,-1.03458 l 0.32523,-0.82291 0.10711,-0.0411 0.10712,-0.0411 0.24183,0.35602 0.24182,0.35601 0.37504,-0.0179 c 0.20627,-0.01 0.53696,-0.0797 0.73487,-0.15517 l 0.35984,-0.13722 v -0.16233 -0.16233 h -0.0847 c -0.0466,0 -0.0847,-0.0572 -0.0847,-0.127 v -0.127 l 0.10584,0.001 c 0.0582,7.1e-4 0.14603,0.0293 0.19516,0.0635 l 0.0893,0.0622 -0.0477,1.86267 -0.0477,1.86266 -0.11241,0.19852 -0.1124,0.19851 0.19776,-0.0601 c 0.10877,-0.033 0.28292,-0.138 0.38699,-0.23324 z"
       id="path272" />
  </g>
</svg>
